# Blender v2.76 (sub 0) OBJ File: ''
# www.blender.org
mtllib labirinto.mtl
o Plane.001
v -259.200012 -8.284988 -130.199997
v -259.200012 -9.640988 -130.199997
v -259.200012 -8.285014 150.800003
v -259.200012 -9.641013 150.800003
v 215.600006 -9.641013 150.800003
v 215.600006 -9.640988 -130.199997
v 215.600006 -8.285014 150.800003
v 215.600006 -8.284988 -130.199997
v 193.399994 -8.298988 -123.300003
v 201.899994 -8.298988 -123.300003
v 201.899994 -8.299012 130.300003
v 193.399994 -8.299012 130.300003
v 193.399994 45.820007 -123.300003
v 193.399994 45.819992 130.300003
v 201.899994 45.819992 130.300003
v 201.899994 45.820007 -123.300003
v -241.699997 -8.299007 85.730003
v -241.699997 -8.299007 77.239998
v 173.399994 -8.299007 77.239998
v 173.399994 -8.299007 85.730003
v -241.699997 45.819992 85.730003
v 173.399994 45.819992 85.730003
v 173.399994 45.819992 77.239998
v -241.699997 45.819992 77.239998
v 96.660004 -8.299012 128.500000
v 96.660004 -8.299012 120.000000
v 202.300003 -8.299012 120.000000
v 202.300003 -8.299012 128.500000
v 96.660004 45.819992 128.500000
v 202.300003 45.819992 128.500000
v 202.300003 45.819992 120.000000
v 96.660004 45.819992 120.000000
v 162.899994 -8.298992 -97.709999
v 171.399994 -8.298992 -97.709999
v 171.399994 -8.299006 54.930000
v 162.899994 -8.299006 54.930000
v 162.899994 45.820007 -97.709999
v 162.899994 45.819992 54.930008
v 171.399994 45.819992 54.930008
v 171.399994 45.820007 -97.709999
v 96.989998 -8.299007 80.779999
v 105.500000 -8.299007 80.779999
v 105.500000 -8.299012 126.599998
v 96.989998 -8.299012 126.599998
v 96.989998 45.819992 80.779999
v 96.989998 45.819992 126.599998
v 105.500000 45.819992 126.599998
v 105.500000 45.819992 80.779999
v 35.570000 -8.299004 54.119999
v 35.570000 -8.299004 45.619999
v 171.800003 -8.299004 45.619999
v 171.800003 -8.299004 54.119999
v 35.570000 45.819992 54.120007
v 171.800003 45.819992 54.120007
v 171.800003 45.819992 45.620007
v 35.570000 45.819992 45.620007
v 94.879997 -8.298992 -88.349998
v 94.879997 -8.298992 -96.849998
v 170.300003 -8.298992 -96.849998
v 170.300003 -8.298992 -88.349998
v 94.879997 45.820007 -88.349998
v 170.300003 45.820007 -88.349998
v 170.300003 45.820007 -96.849998
v 94.879997 45.820007 -96.849998
v 96.660004 -8.298990 -114.500000
v 96.660004 -8.298988 -123.000000
v 202.300003 -8.298988 -123.000000
v 202.300003 -8.298990 -114.500000
v 96.660004 45.820007 -114.500000
v 202.300003 45.820007 -114.500000
v 202.300003 45.820007 -123.000000
v 96.660004 45.820007 -123.000000
v -199.199997 -8.298990 -110.800003
v -199.199997 -8.298990 -119.300003
v 43.500000 -8.298990 -119.300003
v 43.500000 -8.298990 -110.800003
v -199.199997 45.820007 -110.800003
v 43.500000 45.820007 -110.800003
v 43.500000 45.820007 -119.300003
v -199.199997 45.820007 -119.300003
v 35.119999 -8.298990 -119.300003
v 43.619999 -8.298990 -119.300003
v 43.619999 -8.299004 54.380001
v 35.119999 -8.299004 54.380001
v 35.119999 45.820007 -119.300003
v 35.119999 45.819992 54.380009
v 43.619999 45.819992 54.380009
v 43.619999 45.820007 -119.300003
v -102.000000 -8.298998 -12.930000
v -102.000000 -8.298998 -21.430000
v 43.840000 -8.298998 -21.430000
v 43.840000 -8.298998 -12.930000
v -102.000000 45.820000 -12.929998
v 43.840000 45.820000 -12.929998
v 43.840000 45.820000 -21.429998
v -102.000000 45.820000 -21.429998
v -196.600006 -8.298996 -45.950001
v -196.600006 -8.298996 -54.450001
v -2.207000 -8.298996 -54.450001
v -2.207000 -8.298996 -45.950001
v -196.600006 45.820007 -45.949993
v -2.207000 45.820007 -45.949993
v -2.207000 45.820007 -54.449993
v -196.600006 45.820007 -54.449993
v -60.450001 -8.298992 -78.339996
v -60.450001 -8.298992 -86.839996
v -2.289000 -8.298992 -86.839996
v -2.289000 -8.298992 -78.339996
v -60.450001 45.820007 -78.339996
v -2.289000 45.820007 -78.339996
v -2.289000 45.820007 -86.839996
v -60.450001 45.820007 -86.839996
v -11.290000 -8.298990 -117.599998
v -2.788000 -8.298990 -117.599998
v -2.788000 -8.298992 -79.620003
v -11.290000 -8.298992 -79.620003
v -11.290000 45.820007 -117.599998
v -11.290000 45.820007 -79.620003
v -2.788000 45.820007 -79.620003
v -2.788000 45.820007 -117.599998
v -99.129997 -8.298990 -117.599998
v -90.629997 -8.298990 -117.599998
v -90.629997 -8.298992 -79.620003
v -99.129997 -8.298992 -79.620003
v -99.129997 45.820007 -117.599998
v -99.129997 45.820007 -79.620003
v -90.629997 45.820007 -79.620003
v -90.629997 45.820007 -117.599998
v -150.800003 -8.298992 -78.339996
v -150.800003 -8.298992 -86.839996
v -90.790001 -8.298992 -86.839996
v -90.790001 -8.298992 -78.339996
v -150.800003 45.820007 -78.339996
v -90.790001 45.820007 -78.339996
v -90.790001 45.820007 -86.839996
v -150.800003 45.820007 -86.839996
v -151.199997 -8.298990 -117.599998
v -142.800003 -8.298990 -117.599998
v -142.800003 -8.298992 -79.620003
v -151.199997 -8.298992 -79.620003
v -151.199997 45.820007 -117.599998
v -151.199997 45.820007 -79.620003
v -142.800003 45.820007 -79.620003
v -142.800003 45.820007 -117.599998
v -238.800003 -8.298992 -78.339996
v -238.800003 -8.298992 -86.839996
v -182.300003 -8.298992 -86.839996
v -182.300003 -8.298992 -78.339996
v -238.800003 45.820007 -78.339996
v -182.300003 45.820007 -78.339996
v -182.300003 45.820007 -86.839996
v -238.800003 45.820007 -86.839996
v -239.699997 -8.298990 -119.599998
v -231.199997 -8.298990 -119.599998
v -231.199997 -8.299007 83.519997
v -239.699997 -8.299007 83.519997
v -239.699997 45.820007 -119.599998
v -239.699997 45.819992 83.519997
v -231.199997 45.819992 83.519997
v -231.199997 45.820007 -119.599998
v -152.199997 -8.298996 -50.810001
v -143.699997 -8.298996 -50.810001
v -143.699997 -8.299002 14.720000
v -152.199997 -8.299002 14.720000
v -152.199997 45.820007 -50.809994
v -152.199997 45.820000 14.720002
v -143.699997 45.820000 14.720002
v -143.699997 45.820007 -50.809994
v -236.699997 -8.298998 -13.070000
v -236.699997 -8.298998 -21.559999
v -188.100006 -8.298998 -21.559999
v -188.100006 -8.298998 -13.070000
v -236.699997 45.820000 -13.069998
v -188.100006 45.820000 -13.069998
v -188.100006 45.820000 -21.559998
v -236.699997 45.820000 -21.559998
v -196.300003 -8.298998 -19.660000
v -187.800003 -8.298998 -19.660000
v -187.800003 -8.299004 52.720001
v -196.300003 -8.299004 52.720001
v -196.300003 45.820000 -19.659998
v -196.300003 45.819992 52.720009
v -187.800003 45.819992 52.720009
v -187.800003 45.820000 -19.659998
v -151.699997 -8.299002 19.820000
v -151.699997 -8.299002 11.330000
v -43.939999 -8.299002 11.330000
v -43.939999 -8.299002 19.820000
v -151.699997 45.820000 19.820002
v -43.939999 45.820000 19.820002
v -43.939999 45.820000 11.330002
v -151.699997 45.820000 11.330002
v -13.550000 -8.299000 10.080000
v -5.053000 -8.299000 10.080000
v -5.053000 -8.299007 82.050003
v -13.550000 -8.299007 82.050003
v -13.550000 45.820000 10.080002
v -13.550000 45.819992 82.050003
v -5.053000 45.819992 82.050003
v -5.053000 45.820000 10.080002
v -52.220001 -8.299002 12.610000
v -43.720001 -8.299002 12.610000
v -43.720001 -8.299004 52.919998
v -52.220001 -8.299004 52.919998
v -52.220001 45.820000 12.610002
v -52.220001 45.819992 52.920006
v -43.720001 45.819992 52.920006
v -43.720001 45.820000 12.610002
v -193.000000 -8.299004 52.599998
v -193.000000 -8.299004 44.110001
v -87.500000 -8.299004 44.110001
v -87.500000 -8.299004 52.599998
v -193.000000 45.819992 52.600006
v -87.500000 45.819992 52.600006
v -87.500000 45.819992 44.110008
v -193.000000 45.819992 44.110008
vt 0.000000 0.000000
vn -1.000000 0.000000 0.000000
vn 1.000000 0.000000 0.000000
vn 0.000000 -1.000000 -0.000000
vn 0.000000 0.000000 1.000000
vn 0.000000 1.000000 0.000000
vn 0.000000 0.000000 -1.000000
usemtl Material.001
s 1
f 1/1/1 2/1/1 3/1/1
f 4/1/1 3/1/1 2/1/1
f 5/1/2 6/1/2 7/1/2
f 8/1/2 7/1/2 6/1/2
f 4/1/3 2/1/3 5/1/3
f 6/1/3 5/1/3 2/1/3
f 3/1/4 4/1/4 7/1/4
f 5/1/4 7/1/4 4/1/4
f 1/1/5 3/1/5 8/1/5
f 7/1/5 8/1/5 3/1/5
f 2/1/6 1/1/6 6/1/6
f 8/1/6 6/1/6 1/1/6
f 9/1/3 10/1/3 11/1/3
f 11/1/3 12/1/3 9/1/3
f 13/1/5 14/1/5 15/1/5
f 15/1/5 16/1/5 13/1/5
f 9/1/1 12/1/1 14/1/1
f 14/1/1 13/1/1 9/1/1
f 12/1/4 11/1/4 15/1/4
f 15/1/4 14/1/4 12/1/4
f 11/1/2 10/1/2 16/1/2
f 16/1/2 15/1/2 11/1/2
f 10/1/6 9/1/6 13/1/6
f 13/1/6 16/1/6 10/1/6
f 17/1/3 18/1/3 19/1/3
f 19/1/3 20/1/3 17/1/3
f 21/1/5 22/1/5 23/1/5
f 23/1/5 24/1/5 21/1/5
f 17/1/4 20/1/4 22/1/4
f 22/1/4 21/1/4 17/1/4
f 20/1/2 19/1/2 23/1/2
f 23/1/2 22/1/2 20/1/2
f 19/1/6 18/1/6 24/1/6
f 24/1/6 23/1/6 19/1/6
f 18/1/1 17/1/1 21/1/1
f 21/1/1 24/1/1 18/1/1
f 25/1/3 26/1/3 27/1/3
f 27/1/3 28/1/3 25/1/3
f 29/1/5 30/1/5 31/1/5
f 31/1/5 32/1/5 29/1/5
f 25/1/4 28/1/4 30/1/4
f 30/1/4 29/1/4 25/1/4
f 28/1/2 27/1/2 31/1/2
f 31/1/2 30/1/2 28/1/2
f 27/1/6 26/1/6 32/1/6
f 32/1/6 31/1/6 27/1/6
f 26/1/1 25/1/1 29/1/1
f 29/1/1 32/1/1 26/1/1
f 33/1/3 34/1/3 35/1/3
f 35/1/3 36/1/3 33/1/3
f 37/1/5 38/1/5 39/1/5
f 39/1/5 40/1/5 37/1/5
f 33/1/1 36/1/1 38/1/1
f 38/1/1 37/1/1 33/1/1
f 36/1/4 35/1/4 39/1/4
f 39/1/4 38/1/4 36/1/4
f 35/1/2 34/1/2 40/1/2
f 40/1/2 39/1/2 35/1/2
f 34/1/6 33/1/6 37/1/6
f 37/1/6 40/1/6 34/1/6
f 41/1/3 42/1/3 43/1/3
f 43/1/3 44/1/3 41/1/3
f 45/1/5 46/1/5 47/1/5
f 47/1/5 48/1/5 45/1/5
f 41/1/1 44/1/1 46/1/1
f 46/1/1 45/1/1 41/1/1
f 44/1/4 43/1/4 47/1/4
f 47/1/4 46/1/4 44/1/4
f 43/1/2 42/1/2 48/1/2
f 48/1/2 47/1/2 43/1/2
f 42/1/6 41/1/6 45/1/6
f 45/1/6 48/1/6 42/1/6
f 49/1/3 50/1/3 51/1/3
f 51/1/3 52/1/3 49/1/3
f 53/1/5 54/1/5 55/1/5
f 55/1/5 56/1/5 53/1/5
f 49/1/4 52/1/4 54/1/4
f 54/1/4 53/1/4 49/1/4
f 52/1/2 51/1/2 55/1/2
f 55/1/2 54/1/2 52/1/2
f 51/1/6 50/1/6 56/1/6
f 56/1/6 55/1/6 51/1/6
f 50/1/1 49/1/1 53/1/1
f 53/1/1 56/1/1 50/1/1
f 57/1/3 58/1/3 59/1/3
f 59/1/3 60/1/3 57/1/3
f 61/1/5 62/1/5 63/1/5
f 63/1/5 64/1/5 61/1/5
f 57/1/4 60/1/4 62/1/4
f 62/1/4 61/1/4 57/1/4
f 60/1/2 59/1/2 63/1/2
f 63/1/2 62/1/2 60/1/2
f 59/1/6 58/1/6 64/1/6
f 64/1/6 63/1/6 59/1/6
f 58/1/1 57/1/1 61/1/1
f 61/1/1 64/1/1 58/1/1
f 65/1/3 66/1/3 67/1/3
f 67/1/3 68/1/3 65/1/3
f 69/1/5 70/1/5 71/1/5
f 71/1/5 72/1/5 69/1/5
f 65/1/4 68/1/4 70/1/4
f 70/1/4 69/1/4 65/1/4
f 68/1/2 67/1/2 71/1/2
f 71/1/2 70/1/2 68/1/2
f 67/1/6 66/1/6 72/1/6
f 72/1/6 71/1/6 67/1/6
f 66/1/1 65/1/1 69/1/1
f 69/1/1 72/1/1 66/1/1
f 73/1/3 74/1/3 75/1/3
f 75/1/3 76/1/3 73/1/3
f 77/1/5 78/1/5 79/1/5
f 79/1/5 80/1/5 77/1/5
f 73/1/4 76/1/4 78/1/4
f 78/1/4 77/1/4 73/1/4
f 76/1/2 75/1/2 79/1/2
f 79/1/2 78/1/2 76/1/2
f 75/1/6 74/1/6 80/1/6
f 80/1/6 79/1/6 75/1/6
f 74/1/1 73/1/1 77/1/1
f 77/1/1 80/1/1 74/1/1
f 81/1/3 82/1/3 83/1/3
f 83/1/3 84/1/3 81/1/3
f 85/1/5 86/1/5 87/1/5
f 87/1/5 88/1/5 85/1/5
f 81/1/1 84/1/1 86/1/1
f 86/1/1 85/1/1 81/1/1
f 84/1/4 83/1/4 87/1/4
f 87/1/4 86/1/4 84/1/4
f 83/1/2 82/1/2 88/1/2
f 88/1/2 87/1/2 83/1/2
f 82/1/6 81/1/6 85/1/6
f 85/1/6 88/1/6 82/1/6
f 89/1/3 90/1/3 91/1/3
f 91/1/3 92/1/3 89/1/3
f 93/1/5 94/1/5 95/1/5
f 95/1/5 96/1/5 93/1/5
f 89/1/4 92/1/4 94/1/4
f 94/1/4 93/1/4 89/1/4
f 92/1/2 91/1/2 95/1/2
f 95/1/2 94/1/2 92/1/2
f 91/1/6 90/1/6 96/1/6
f 96/1/6 95/1/6 91/1/6
f 90/1/1 89/1/1 93/1/1
f 93/1/1 96/1/1 90/1/1
f 97/1/3 98/1/3 99/1/3
f 99/1/3 100/1/3 97/1/3
f 101/1/5 102/1/5 103/1/5
f 103/1/5 104/1/5 101/1/5
f 97/1/4 100/1/4 102/1/4
f 102/1/4 101/1/4 97/1/4
f 100/1/2 99/1/2 103/1/2
f 103/1/2 102/1/2 100/1/2
f 99/1/6 98/1/6 104/1/6
f 104/1/6 103/1/6 99/1/6
f 98/1/1 97/1/1 101/1/1
f 101/1/1 104/1/1 98/1/1
f 105/1/3 106/1/3 107/1/3
f 107/1/3 108/1/3 105/1/3
f 109/1/5 110/1/5 111/1/5
f 111/1/5 112/1/5 109/1/5
f 105/1/4 108/1/4 110/1/4
f 110/1/4 109/1/4 105/1/4
f 108/1/2 107/1/2 111/1/2
f 111/1/2 110/1/2 108/1/2
f 107/1/6 106/1/6 112/1/6
f 112/1/6 111/1/6 107/1/6
f 106/1/1 105/1/1 109/1/1
f 109/1/1 112/1/1 106/1/1
f 113/1/3 114/1/3 115/1/3
f 115/1/3 116/1/3 113/1/3
f 117/1/5 118/1/5 119/1/5
f 119/1/5 120/1/5 117/1/5
f 113/1/1 116/1/1 118/1/1
f 118/1/1 117/1/1 113/1/1
f 116/1/4 115/1/4 119/1/4
f 119/1/4 118/1/4 116/1/4
f 115/1/2 114/1/2 120/1/2
f 120/1/2 119/1/2 115/1/2
f 114/1/6 113/1/6 117/1/6
f 117/1/6 120/1/6 114/1/6
f 121/1/3 122/1/3 123/1/3
f 123/1/3 124/1/3 121/1/3
f 125/1/5 126/1/5 127/1/5
f 127/1/5 128/1/5 125/1/5
f 121/1/1 124/1/1 126/1/1
f 126/1/1 125/1/1 121/1/1
f 124/1/4 123/1/4 127/1/4
f 127/1/4 126/1/4 124/1/4
f 123/1/2 122/1/2 128/1/2
f 128/1/2 127/1/2 123/1/2
f 122/1/6 121/1/6 125/1/6
f 125/1/6 128/1/6 122/1/6
f 129/1/3 130/1/3 131/1/3
f 131/1/3 132/1/3 129/1/3
f 133/1/5 134/1/5 135/1/5
f 135/1/5 136/1/5 133/1/5
f 129/1/4 132/1/4 134/1/4
f 134/1/4 133/1/4 129/1/4
f 132/1/2 131/1/2 135/1/2
f 135/1/2 134/1/2 132/1/2
f 131/1/6 130/1/6 136/1/6
f 136/1/6 135/1/6 131/1/6
f 130/1/1 129/1/1 133/1/1
f 133/1/1 136/1/1 130/1/1
f 137/1/3 138/1/3 139/1/3
f 139/1/3 140/1/3 137/1/3
f 141/1/5 142/1/5 143/1/5
f 143/1/5 144/1/5 141/1/5
f 137/1/1 140/1/1 142/1/1
f 142/1/1 141/1/1 137/1/1
f 140/1/4 139/1/4 143/1/4
f 143/1/4 142/1/4 140/1/4
f 139/1/2 138/1/2 144/1/2
f 144/1/2 143/1/2 139/1/2
f 138/1/6 137/1/6 141/1/6
f 141/1/6 144/1/6 138/1/6
f 145/1/3 146/1/3 147/1/3
f 147/1/3 148/1/3 145/1/3
f 149/1/5 150/1/5 151/1/5
f 151/1/5 152/1/5 149/1/5
f 145/1/4 148/1/4 150/1/4
f 150/1/4 149/1/4 145/1/4
f 148/1/2 147/1/2 151/1/2
f 151/1/2 150/1/2 148/1/2
f 147/1/6 146/1/6 152/1/6
f 152/1/6 151/1/6 147/1/6
f 146/1/1 145/1/1 149/1/1
f 149/1/1 152/1/1 146/1/1
f 153/1/3 154/1/3 155/1/3
f 155/1/3 156/1/3 153/1/3
f 157/1/5 158/1/5 159/1/5
f 159/1/5 160/1/5 157/1/5
f 153/1/1 156/1/1 158/1/1
f 158/1/1 157/1/1 153/1/1
f 156/1/4 155/1/4 159/1/4
f 159/1/4 158/1/4 156/1/4
f 155/1/2 154/1/2 160/1/2
f 160/1/2 159/1/2 155/1/2
f 154/1/6 153/1/6 157/1/6
f 157/1/6 160/1/6 154/1/6
f 161/1/3 162/1/3 163/1/3
f 163/1/3 164/1/3 161/1/3
f 165/1/5 166/1/5 167/1/5
f 167/1/5 168/1/5 165/1/5
f 161/1/1 164/1/1 166/1/1
f 166/1/1 165/1/1 161/1/1
f 164/1/4 163/1/4 167/1/4
f 167/1/4 166/1/4 164/1/4
f 163/1/2 162/1/2 168/1/2
f 168/1/2 167/1/2 163/1/2
f 162/1/6 161/1/6 165/1/6
f 165/1/6 168/1/6 162/1/6
f 169/1/3 170/1/3 171/1/3
f 171/1/3 172/1/3 169/1/3
f 173/1/5 174/1/5 175/1/5
f 175/1/5 176/1/5 173/1/5
f 169/1/4 172/1/4 174/1/4
f 174/1/4 173/1/4 169/1/4
f 172/1/2 171/1/2 175/1/2
f 175/1/2 174/1/2 172/1/2
f 171/1/6 170/1/6 176/1/6
f 176/1/6 175/1/6 171/1/6
f 170/1/1 169/1/1 173/1/1
f 173/1/1 176/1/1 170/1/1
f 177/1/3 178/1/3 179/1/3
f 179/1/3 180/1/3 177/1/3
f 181/1/5 182/1/5 183/1/5
f 183/1/5 184/1/5 181/1/5
f 177/1/1 180/1/1 182/1/1
f 182/1/1 181/1/1 177/1/1
f 180/1/4 179/1/4 183/1/4
f 183/1/4 182/1/4 180/1/4
f 179/1/2 178/1/2 184/1/2
f 184/1/2 183/1/2 179/1/2
f 178/1/6 177/1/6 181/1/6
f 181/1/6 184/1/6 178/1/6
f 185/1/3 186/1/3 187/1/3
f 187/1/3 188/1/3 185/1/3
f 189/1/5 190/1/5 191/1/5
f 191/1/5 192/1/5 189/1/5
f 185/1/4 188/1/4 190/1/4
f 190/1/4 189/1/4 185/1/4
f 188/1/2 187/1/2 191/1/2
f 191/1/2 190/1/2 188/1/2
f 187/1/6 186/1/6 192/1/6
f 192/1/6 191/1/6 187/1/6
f 186/1/1 185/1/1 189/1/1
f 189/1/1 192/1/1 186/1/1
f 193/1/3 194/1/3 195/1/3
f 195/1/3 196/1/3 193/1/3
f 197/1/5 198/1/5 199/1/5
f 199/1/5 200/1/5 197/1/5
f 193/1/1 196/1/1 198/1/1
f 198/1/1 197/1/1 193/1/1
f 196/1/4 195/1/4 199/1/4
f 199/1/4 198/1/4 196/1/4
f 195/1/2 194/1/2 200/1/2
f 200/1/2 199/1/2 195/1/2
f 194/1/6 193/1/6 197/1/6
f 197/1/6 200/1/6 194/1/6
f 201/1/3 202/1/3 203/1/3
f 203/1/3 204/1/3 201/1/3
f 205/1/5 206/1/5 207/1/5
f 207/1/5 208/1/5 205/1/5
f 201/1/1 204/1/1 206/1/1
f 206/1/1 205/1/1 201/1/1
f 204/1/4 203/1/4 207/1/4
f 207/1/4 206/1/4 204/1/4
f 203/1/2 202/1/2 208/1/2
f 208/1/2 207/1/2 203/1/2
f 202/1/6 201/1/6 205/1/6
f 205/1/6 208/1/6 202/1/6
f 209/1/3 210/1/3 211/1/3
f 211/1/3 212/1/3 209/1/3
f 213/1/5 214/1/5 215/1/5
f 215/1/5 216/1/5 213/1/5
f 209/1/4 212/1/4 214/1/4
f 214/1/4 213/1/4 209/1/4
f 212/1/2 211/1/2 215/1/2
f 215/1/2 214/1/2 212/1/2
f 211/1/6 210/1/6 216/1/6
f 216/1/6 215/1/6 211/1/6
f 210/1/1 209/1/1 213/1/1
f 213/1/1 216/1/1 210/1/1
