# Blender v2.76 (sub 0) OBJ File: 'personal.blend'
# www.blender.org
mtllib personal.mtl
o Plane.001
v -4.739000 23.270000 11.010001
v 4.984000 23.270000 11.010001
v 4.984000 23.270000 3.718001
v -4.739000 23.270000 3.718001
v -3.219000 12.010000 10.060001
v 3.629000 12.020000 10.430001
v 3.584000 12.100000 4.346001
v -3.264000 12.100000 3.977000
v 9.736000 -21.959999 14.569999
v -8.669000 -21.959999 14.569999
v -8.669000 -21.959999 -2.056001
v 9.736000 -21.959999 -2.056001
v -0.846100 14.250000 10.610001
v -1.248000 19.100000 10.650001
v -1.231000 19.070000 13.890001
v -0.829000 14.219999 13.850001
v -5.691000 13.850000 10.630001
v -5.674000 13.819999 13.870001
v -6.075000 18.670000 13.910001
v -6.093000 18.690001 10.670001
v -2.291000 15.999999 11.500001
v -2.425000 17.620001 11.510001
v -2.408000 17.590000 14.750001
v -2.274000 15.979999 14.740001
v -3.906000 15.869999 11.510001
v -3.889000 15.839999 14.750001
v -4.022000 17.459999 14.760001
v -4.040000 17.490000 11.520001
v 4.135000 15.609999 11.460001
v 4.284000 17.219999 11.470001
v 4.301000 17.190001 14.720001
v 4.152000 15.579999 14.700001
v 2.522000 15.749999 11.470001
v 2.539000 15.729999 14.710001
v 2.687000 17.340000 14.720001
v 2.670000 17.370001 11.480000
v 6.236000 13.780000 10.560001
v 6.682000 18.620001 10.600001
v 6.699000 18.600000 13.840001
v 6.253000 13.759999 13.810001
v 1.395000 14.230000 10.590001
v 1.412000 14.199999 13.830001
v 1.858000 19.040001 13.870001
v 1.841000 19.070000 10.630001
vt 0.000000 0.000000
vn 0.000000 -1.000000 0.000000
vn -0.053800 0.111200 0.992300
vn 0.000000 0.131600 0.991300
vn 0.983900 0.178600 -0.004900
vn 0.984200 0.176900 0.000000
vn 0.053100 0.166000 -0.984700
vn 0.000000 0.184700 -0.982800
vn -0.987100 0.159700 0.009700
vn -0.987600 0.156700 0.000000
vn -0.006600 0.005600 -1.000000
vn -0.005600 0.006700 -1.000000
vn 0.000000 1.000000 0.000000
vn -0.053800 -0.044900 0.997500
vn 0.992100 -0.124900 -0.009000
vn 0.053800 -0.016000 -0.998400
vn -0.990900 -0.134200 0.005300
vn 0.000000 -0.084100 0.996500
vn 0.992800 -0.119600 0.000000
vn 0.000000 -0.056100 -0.998400
vn -0.991400 -0.130900 0.000000
vn 0.996600 0.082600 -0.004500
vn 0.996600 0.082500 -0.004500
vn 0.996600 0.082800 -0.004600
vn 0.996500 0.083000 -0.004700
vn -0.996600 -0.082300 0.004700
vn -0.996600 -0.081800 0.004500
vn -0.996600 -0.082000 0.004600
vn -0.996600 -0.082500 0.004800
vn 0.086300 -0.996200 -0.006600
vn 0.080200 -0.996700 -0.009600
vn 0.006700 -0.005600 1.000000
vn 0.006700 -0.005700 1.000000
vn -0.080200 0.996700 0.009700
vn -0.080200 0.996700 0.009600
vn 0.995700 -0.092100 -0.006100
vn -0.995800 0.091100 0.006000
vn -0.995800 0.091500 0.005800
vn -0.995800 0.091000 0.006000
vn -0.995800 0.090900 0.006100
vn -0.092600 -0.995700 -0.008700
vn -0.086500 -0.996200 -0.005700
vn -0.001100 -0.012300 0.999900
vn 0.005600 -0.006700 1.000000
vn 0.092600 0.995700 0.008700
vn 0.092500 0.995700 0.008700
vn -0.996600 -0.082600 0.004700
vn -0.996600 -0.082400 0.004500
vn -0.996600 -0.082700 0.004800
vn -0.996600 -0.082800 0.005000
vn 0.082200 -0.996600 -0.009700
vn 0.004800 -0.007900 1.000000
vn -0.084300 0.996400 0.009700
vn -0.082300 0.996600 0.006600
vn -0.004800 0.007900 -1.000000
vn 0.995800 -0.091700 -0.005800
vn -0.995800 0.091700 0.006100
vn -0.090500 -0.995900 -0.005700
vn 0.003400 -0.008600 1.000000
vn 0.092600 0.995700 0.005700
vn 0.090600 0.995900 0.008700
vn -0.005400 0.008800 -0.999900
usemtl Material.001
s 1
f 9/1/1 10/1/1 11/1/1
f 9/1/1 11/1/1 12/1/1
f 5/1/2 9/1/2 6/1/2
f 10/1/3 9/1/3 5/1/3
f 6/1/4 12/1/4 7/1/4
f 9/1/5 12/1/5 6/1/5
f 7/1/6 11/1/6 8/1/6
f 12/1/7 11/1/7 7/1/7
f 8/1/8 10/1/8 5/1/8
f 11/1/9 10/1/9 8/1/9
f 22/1/10 21/1/10 25/1/10
f 25/1/10 28/1/10 22/1/10
f 30/1/11 29/1/11 33/1/11
f 33/1/11 36/1/11 30/1/11
usemtl Material.002
f 1/1/12 2/1/12 3/1/12
f 3/1/12 4/1/12 1/1/12
f 5/1/13 6/1/13 2/1/13
f 6/1/14 7/1/14 3/1/14
f 7/1/15 8/1/15 4/1/15
f 8/1/16 5/1/16 1/1/16
f 2/1/17 1/1/17 5/1/17
f 3/1/18 2/1/18 6/1/18
f 4/1/19 3/1/19 7/1/19
f 1/1/20 4/1/20 8/1/20
usemtl Material.003
f 21/1/21 22/1/22 23/1/23
f 23/1/23 24/1/24 21/1/21
f 25/1/25 26/1/26 27/1/27
f 27/1/27 28/1/28 25/1/25
f 21/1/29 24/1/29 26/1/29
f 26/1/30 25/1/30 21/1/30
f 24/1/31 23/1/32 27/1/31
f 27/1/31 26/1/31 24/1/31
f 23/1/33 22/1/34 28/1/33
f 28/1/33 27/1/33 23/1/33
f 29/1/35 30/1/35 31/1/35
f 31/1/35 32/1/35 29/1/35
f 33/1/36 34/1/37 35/1/38
f 35/1/38 36/1/39 33/1/36
f 29/1/40 32/1/40 34/1/40
f 34/1/41 33/1/41 29/1/41
f 32/1/42 31/1/42 35/1/42
f 35/1/43 34/1/43 32/1/43
f 31/1/44 30/1/44 36/1/44
f 36/1/44 35/1/45 31/1/44
usemtl Material.004
f 13/1/21 14/1/21 15/1/21
f 15/1/21 16/1/21 13/1/21
f 17/1/46 18/1/47 19/1/48
f 19/1/48 20/1/49 17/1/46
f 13/1/50 16/1/50 18/1/50
f 18/1/50 17/1/50 13/1/50
f 16/1/51 15/1/51 19/1/51
f 19/1/51 18/1/51 16/1/51
f 15/1/52 14/1/52 20/1/52
f 20/1/53 19/1/53 15/1/53
f 14/1/54 13/1/54 17/1/54
f 17/1/54 20/1/54 14/1/54
f 37/1/55 38/1/55 39/1/55
f 39/1/55 40/1/55 37/1/55
f 41/1/56 42/1/56 43/1/56
f 43/1/56 44/1/56 41/1/56
f 37/1/57 40/1/57 42/1/57
f 42/1/40 41/1/40 37/1/40
f 40/1/43 39/1/43 43/1/43
f 43/1/58 42/1/58 40/1/58
f 39/1/59 38/1/59 44/1/59
f 44/1/60 43/1/60 39/1/60
f 38/1/61 37/1/61 41/1/61
f 41/1/61 44/1/61 38/1/61
